<?xml version="1.0" encoding="UTF-8"?>
<svg version="1.1" xmlns="http://www.w3.org/2000/svg" width="1080" height="1080">
<path d="M0 0 C8.12369172 2.05171109 15.92437664 4.67481666 23.76953125 7.60546875 C25.6010989 8.28291687 27.43266664 8.96036474 29.26423931 9.63779926 C31.8092315 10.58048327 34.35258927 11.527536 36.89599609 12.4744873 C41.28647991 14.10791507 45.67988915 15.73345986 50.07296753 17.3598938 C52.52425129 18.26875629 54.97456185 19.18024822 57.42385864 20.0944519 C63.16025855 22.23175385 68.90357537 24.32878732 74.69287109 26.31884766 C75.72184006 26.67690994 76.75080902 27.03497223 77.81095886 27.40388489 C79.7277537 28.06770226 81.6490851 28.7186121 83.57539368 29.35429382 C84.41378281 29.64641251 85.25217194 29.93853119 86.1159668 30.23950195 C86.84663864 30.48489212 87.57731049 30.73028229 88.3301239 30.98310852 C90 32 90 32 90.83828735 33.80421448 C91.04138614 36.56195415 90.44565291 38.3044758 89.47143555 40.89306641 C89.10830261 41.87456665 88.74516968 42.85606689 88.37103271 43.86730957 C87.7600473 45.46826477 87.7600473 45.46826477 87.13671875 47.1015625 C86.71835754 48.22445679 86.29999634 49.34735107 85.86895752 50.50427246 C84.72394923 53.57326193 83.56970861 56.63859417 82.41196823 59.70279694 C81.19319824 62.93651143 79.98735419 66.1750279 78.78149414 69.41357422 C78.53912742 70.06439028 78.29676069 70.71520634 78.04704952 71.38574409 C77.55490912 72.70732046 77.0628117 74.02891284 76.57075691 75.35052109 C75.82417611 77.35434884 75.07623056 79.35766272 74.32798767 81.36087036 C69.76617926 93.58102589 65.34067555 105.84661083 60.9375 118.125 C51.36210075 144.77541191 41.67762247 171.3865382 32 198 C143.54 198.33 255.08 198.66 370 199 C371.485 194.05 371.485 194.05 373 189 C373.68674569 186.95810978 374.39052747 184.92179037 375.11865234 182.89428711 C375.51192215 181.79552246 375.90519196 180.69675781 376.31037903 179.56469727 C376.94178047 177.81370728 376.94178047 177.81370728 377.5859375 176.02734375 C378.03990307 174.76308339 378.49368944 173.49875868 378.9473114 172.234375 C380.16599322 168.84023457 381.38835816 165.44743198 382.61171341 162.0549736 C383.37995719 159.92374801 384.14714799 157.79214614 384.91403198 155.66043091 C393.05652255 133.02988986 401.32665232 110.44857152 409.66821289 87.890625 C416.90752634 68.30611583 424.00120922 48.67164609 431 29 C439.24275444 31.33940239 447.28635865 34.17293687 455.34375 37.078125 C456.72117423 37.57289468 458.09865759 38.0674998 459.47619629 38.56195068 C462.35453354 39.59576297 465.23219663 40.631424 468.109375 41.66845703 C471.74096169 42.9772615 475.37412385 44.28162603 479.00776672 45.58470917 C493.74455227 50.87147067 508.4616201 56.18363208 523 62 C521.69958357 68.44163515 519.91869794 74.41480619 517.60546875 80.55859375 C517.26573532 81.47614944 516.92600189 82.39370514 516.57597351 83.33906555 C515.838353 85.32970941 515.0981555 87.31939991 514.35565186 89.30822754 C512.32549479 94.74665969 510.31433892 100.19212382 508.30078125 105.63671875 C507.66160767 107.3627684 507.66160767 107.3627684 507.00952148 109.12368774 C503.77573423 117.86755984 500.58572352 126.62658621 497.41796875 135.39453125 C497.18617857 136.03595503 496.95438839 136.67737881 496.71557426 137.33823967 C494.65852548 143.03163257 492.60405922 148.7259534 490.55258179 154.4213562 C489.28395045 157.94290542 488.01314058 161.46366318 486.7421875 164.984375 C486.38122482 165.9892244 486.02026215 166.99407379 485.64836121 168.02937317 C481.89941482 178.40819758 477.93079536 188.68166217 474 199 C513.27 199 552.54 199 593 199 C593 229.36 593 259.72 593 291 C542.51 291 492.02 291 440 291 C438.515 295.95 438.515 295.95 437 301 C436.27677728 303.14260528 435.53558791 305.27929628 434.77026367 307.40722656 C434.35464676 308.56664764 433.93902985 309.72606873 433.51081848 310.92062378 C433.06767807 312.14822418 432.62453766 313.37582458 432.16796875 314.640625 C431.69496961 315.95648292 431.22217063 317.27241281 430.7495575 318.58840942 C429.49246301 322.08635981 428.23187051 325.58303934 426.9703598 329.07939911 C426.18185917 331.26564008 425.39438103 333.45224667 424.60723877 335.63897705 C418.49313234 352.62364499 412.35180222 369.59749646 406.07849121 386.5241394 C400.61786756 401.25802341 395.27521456 416.03369978 389.9375 430.8125 C382.90688778 450.27754399 375.80365903 469.71393984 368.625 489.125 C360.88957856 510.04357581 353.29902232 531.01049691 345.78109741 552.00787735 C336.25958433 578.6003277 326.54663505 605.1192208 316.72793579 631.60334778 C316.38088593 632.54030991 316.03383606 633.47727203 315.67626953 634.44262695 C315.2240654 635.66197685 315.2240654 635.66197685 314.76272583 636.90596008 C314.14778671 638.5942562 313.56819837 640.29540489 313 642 C405.4 642.33 497.8 642.66 593 643 C593 673.36 593 703.72 593 735 C489.05 735 385.1 735 278 735 C277.34 737.97 276.68 740.94 276 744 C275.44782445 745.76072692 274.85700355 747.51031566 274.21020508 749.23852539 C273.86323074 750.17503433 273.51625641 751.11154327 273.1587677 752.07643127 C272.78281967 753.07343552 272.40687164 754.07043976 272.01953125 755.09765625 C271.61913132 756.17510605 271.21873138 757.25255585 270.80619812 758.36265564 C269.9368269 760.70123734 269.06497541 763.03889818 268.19091797 765.37573242 C265.79722933 771.7779804 263.42401966 778.18780528 261.05078125 784.59765625 C260.67908751 785.60076277 260.67908751 785.60076277 260.2998848 786.62413406 C254.83572217 801.37520818 249.51796913 816.17758842 244.21955109 830.9888382 C236.31348559 853.08647276 228.30024094 875.14040381 220.1557312 897.15158081 C211.62072911 920.22404705 203.26513344 943.35896393 194.95002747 966.5113678 C193.32767366 971.02207294 191.69725975 975.5298431 190.06622314 980.03741455 C189.08199037 982.77218326 188.11288322 985.51179485 187.14794922 988.25341797 C186.61858146 989.73029291 186.0888344 991.20703198 185.55859375 992.68359375 C185.12732178 993.9048999 184.6960498 995.12620605 184.25170898 996.38452148 C183.83864502 997.24762939 183.42558105 998.1107373 183 999 C179.18573181 1000.27142273 177.91022356 999.50318942 174.1652832 998.14501953 C172.96164627 997.71351593 171.75800934 997.28201233 170.51789856 996.83743286 C169.19544459 996.35278182 167.87307452 995.86790181 166.55078125 995.3828125 C165.177943 994.88651759 163.80482464 994.39099689 162.43144226 993.89620972 C158.79293104 992.58279687 155.15861221 991.25813049 151.52496338 989.93133545 C147.92357568 988.61880454 144.31798656 987.3179273 140.71289062 986.015625 C133.11300912 983.26725658 125.52203962 980.49498642 117.93549347 977.71003723 C116.03537238 977.01297638 114.13466124 976.31754634 112.23382568 975.62243652 C108.83448173 974.37705754 105.43817228 973.12380332 102.04296875 971.8671875 C101.04332596 971.50142609 100.04368317 971.13566467 99.01374817 970.75881958 C98.10968735 970.4218808 97.20562653 970.08494202 96.27416992 969.73779297 C95.09971565 969.30368607 95.09971565 969.30368607 93.90153503 968.86080933 C92 968 92 968 90 966 C93.05912221 957.51961252 96.12199441 949.04058188 99.1875 940.5625 C99.42159702 939.91504822 99.65569405 939.26759644 99.89688492 938.6005249 C107.09055139 918.70759025 114.35448937 898.84207277 121.6875 879 C128.57572676 860.36047335 135.37727105 841.69289224 142.07995605 822.98587036 C149.32171711 802.78147168 156.73379263 782.64132575 164.18554688 762.51367188 C164.61787125 761.34453751 165.05019562 760.17540314 165.49562073 758.97084045 C166.30171296 756.79134906 167.10902402 754.61230788 167.91783142 752.43382263 C168.28066727 751.45268997 168.64350311 750.47155731 169.01733398 749.46069336 C169.32944321 748.61889023 169.64155243 747.7770871 169.96311951 746.90977478 C171.3701693 742.96120208 172.67444293 738.97667121 174 735 C6.69 735.495 6.69 735.495 -164 736 C-171.26 756.13 -178.52 776.26 -186 797 C-196.4375 825.3125 -196.4375 825.3125 -201.63671875 839.3828125 C-207.43806231 855.11624145 -213.09561026 870.90082015 -218.75 886.6875 C-225.70850969 906.11433568 -232.7151757 925.5211365 -239.875 944.875 C-240.23847534 945.85842377 -240.60195068 946.84184753 -240.97644043 947.85507202 C-241.97992652 950.56810171 -242.98543366 953.28036892 -243.9921875 955.9921875 C-244.28578156 956.78465378 -244.57937561 957.57712006 -244.88186646 958.39360046 C-246.88200859 963.76401718 -246.88200859 963.76401718 -248 966 C-252.03538783 965.41956814 -255.651196 964.53927295 -259.46923828 963.11743164 C-261.04476974 962.53530663 -261.04476974 962.53530663 -262.65213013 961.94142151 C-263.78013031 961.51860397 -264.90813049 961.09578644 -266.0703125 960.66015625 C-267.26059052 960.21917099 -268.45086853 959.77818573 -269.67721558 959.32383728 C-272.85388351 958.14612334 -276.02883885 956.96401434 -279.20294189 955.77941895 C-284.80196459 953.6910089 -290.40505833 951.61352907 -296.0078125 949.53515625 C-297.23203918 949.08057037 -298.45626587 948.6259845 -299.71759033 948.15762329 C-312.77045454 943.3223934 -325.8790847 938.64701869 -339 934 C-338.40861691 927.47766104 -336.30237668 921.7534396 -334.046875 915.6328125 C-333.43608597 913.95079742 -333.43608597 913.95079742 -332.81295776 912.23480225 C-331.69865511 909.17086923 -330.57823046 906.10926224 -329.45496368 903.04860687 C-328.26107396 899.79088662 -327.07526955 896.53022363 -325.88818359 893.27001953 C-319.0953375 874.62977769 -312.22411615 856.01822177 -305.34387207 837.41009521 C-297.18150167 815.32961865 -289.19738313 793.18710948 -281.27206612 771.02064705 C-280.33085711 768.38860063 -279.38864959 765.75691209 -278.44641495 763.1252327 C-277.80872186 761.34242833 -277.17285903 759.55896962 -276.53707886 757.77548218 C-273.80225673 750.13326591 -270.91565699 742.58070817 -268 735 C-294.07 735 -320.14 735 -347 735 C-347 704.64 -347 674.28 -347 643 C-309.71 643 -272.42 643 -234 643 C-233.01 639.7 -232.02 636.4 -231 633 C-230.37456435 631.14164979 -229.73302732 629.28851526 -229.06494141 627.44506836 C-228.71165771 626.46627213 -228.35837402 625.48747589 -227.99438477 624.47901917 C-227.61725342 623.44309128 -227.24012207 622.40716339 -226.8515625 621.33984375 C-226.24501831 619.66419594 -226.24501831 619.66419594 -225.6262207 617.95469666 C-224.52554634 614.91653545 -223.42228217 611.87933158 -222.31763458 608.84261322 C-221.61765996 606.917311 -220.91883827 604.99159417 -220.22039795 603.06573486 C-212.99455978 583.14187931 -205.67981895 563.25156773 -198.33023071 543.37301636 C-191.21536823 524.12039868 -184.2352736 504.8222769 -177.3125 485.5 C-170.57041095 466.68203498 -163.79092037 447.88001856 -156.875 429.125 C-149.61304655 409.42998328 -142.43942921 389.7041168 -135.30810547 369.96142578 C-125.91256796 343.95937632 -116.44844312 317.98321858 -107 292 C-186.2 291.67 -265.4 291.34 -347 291 C-347 260.64 -347 230.28 -347 199 C-256.25 199 -165.5 199 -72 199 C-71.67 197.02 -71.34 195.04 -71 193 C-70.56670914 191.56627883 -70.09035282 190.14470648 -69.56738281 188.74121094 C-69.27400528 187.94547668 -68.98062775 187.14974243 -68.67835999 186.32989502 C-68.35653244 185.47337341 -68.0347049 184.61685181 -67.703125 183.734375 C-67.36256577 182.81420593 -67.02200653 181.89403687 -66.67112732 180.94598389 C-65.92789763 178.93914411 -65.18231101 176.93317602 -64.43466187 174.92797852 C-62.37356241 169.39886511 -60.33050216 163.863081 -58.28515625 158.328125 C-57.63731926 156.57701416 -57.63731926 156.57701416 -56.97639465 154.79052734 C-52.58941041 142.91940595 -48.28700174 131.01816783 -43.9914856 119.1137085 C-38.15442782 102.93759018 -32.29930305 86.76858158 -26.3515625 70.6328125 C-26.11819246 69.99969398 -25.88482243 69.36657547 -25.64438057 68.71427155 C-23.19371133 62.06751552 -20.73797209 55.42264388 -18.27807617 48.77929688 C-17.46247001 46.57431411 -16.64711777 44.36923741 -15.83203125 42.1640625 C-15.24306313 40.57123444 -15.24306313 40.57123444 -14.64219666 38.94622803 C-12.46057266 33.02659852 -10.31267044 27.09611925 -8.20068359 21.15136719 C-7.96944007 20.50087843 -7.73819654 19.85038967 -7.49994564 19.18018913 C-6.37664992 16.01785776 -5.25772011 12.85410845 -4.14399719 9.68838501 C-3.74673935 8.56580292 -3.34948151 7.44322083 -2.94018555 6.28662109 C-2.58893112 5.2882724 -2.2376767 4.28992371 -1.8757782 3.26132202 C-1 1 -1 1 0 0 Z M-3 291 C-10.26 311.13 -17.52 331.26 -25 352 C-35.5 380.5 -35.5 380.5 -40.71875 394.625 C-46.46241237 410.19535262 -52.07947582 425.81080877 -57.69313431 441.42834091 C-64.52088422 460.42232882 -71.43403089 479.38240449 -78.4375 498.3125 C-86.7124927 520.68090976 -94.8196307 543.10557035 -102.85674286 565.56023979 C-107.66939009 579.0039971 -112.50680656 592.43672741 -117.453125 605.83203125 C-117.8802327 606.98923676 -118.30734039 608.14644226 -118.74739075 609.3387146 C-120.74723462 614.75217391 -122.75404088 620.1629328 -124.77026367 625.5703125 C-125.47062189 627.4596052 -126.17090347 629.34892631 -126.87109375 631.23828125 C-127.19172791 632.09122269 -127.51236206 632.94416412 -127.8427124 633.82295227 C-128.12979065 634.59978867 -128.4168689 635.37662506 -128.71264648 636.17700195 C-129.08823952 637.18317314 -129.08823952 637.18317314 -129.47142029 638.20967102 C-130.14157918 640.16841521 -130.14157918 640.16841521 -130 643 C-18.46 643 93.08 643 208 643 C211.84623136 633.8656305 211.84623136 633.8656305 215.36499023 624.64111328 C215.76044037 623.54189041 216.1558905 622.44266754 216.56332397 621.31013489 C216.974263 620.1584935 217.38520203 619.00685211 217.80859375 617.8203125 C218.48725684 615.93108226 219.16592251 614.04185295 219.84470367 612.15266514 C220.55658048 610.16975999 221.26703663 608.1863512 221.9770813 606.20278931 C224.20669878 599.97497286 226.44592856 593.75061096 228.68524742 587.52627754 C229.18155961 586.14672776 229.67777669 584.76714375 230.1738987 583.38752556 C234.08588927 572.51020823 238.04455842 561.6511477 242.0625 550.8125 C247.80993434 535.29984815 253.44255562 519.74675341 259.0625 504.1875 C266.09321798 484.72249362 273.19634055 465.2860613 280.375 445.875 C288.35635172 424.29136523 296.18197946 402.65553323 303.93530273 380.98928833 C309.25621141 366.1218169 314.61315161 351.26936959 320.0859375 336.45703125 C320.33230705 335.79000057 320.57867661 335.12296989 320.8325119 334.43572617 C323.41795287 327.43758469 326.01206576 320.44274094 328.61523438 313.45117188 C329.03906403 312.30871506 329.46289368 311.16625824 329.89956665 309.98918152 C330.68722222 307.86602146 331.47785622 305.74396295 332.27206421 303.62324524 C332.61911407 302.68643417 332.96616394 301.74962311 333.32373047 300.78442383 C333.62519989 299.97596512 333.92666931 299.16750641 334.23727417 298.33454895 C335.18364698 295.59356616 335.18364698 295.59356616 336 291 C224.13 291 112.26 291 -3 291 Z " fill="#E95B18" transform="translate(417,40)"/>
<path d="M0 0 C1.12528107 -0.00350464 2.25056213 -0.00700928 3.40994263 -0.01062012 C7.08130293 -0.01933079 10.75246632 -0.01362949 14.42382812 -0.00683594 C16.99401893 -0.0081849 19.56420948 -0.01012735 22.13439941 -0.01263428 C27.49685356 -0.01557042 32.85923501 -0.01152766 38.22167969 -0.00195312 C44.41179799 0.00897186 50.60178493 0.00536801 56.79190016 -0.00560594 C62.77254516 -0.01578132 68.75312605 -0.01469876 74.73377991 -0.00884247 C77.26953652 -0.00750878 79.8052965 -0.00914385 82.34104919 -0.01380157 C85.87589467 -0.01887423 89.41048599 -0.01114794 92.9453125 0 C93.99159821 -0.00404846 95.03788391 -0.00809692 96.11587524 -0.01226807 C97.08000336 -0.00662842 98.04413147 -0.00098877 99.03747559 0.00482178 C99.87140587 0.00557583 100.70533615 0.00632988 101.56453705 0.00710678 C104.30269033 0.29538656 106.45318035 1.13586227 108.95507812 2.25878906 C108.95507812 2.91878906 108.95507812 3.57878906 108.95507812 4.25878906 C109.61507812 4.25878906 110.27507812 4.25878906 110.95507812 4.25878906 C112.58057515 7.84538638 113.21277194 10.66714711 113.24560547 14.59643555 C113.25836517 15.6377916 113.27112488 16.67914764 113.28427124 17.75205994 C113.28649689 18.86674149 113.28872253 19.98142303 113.29101562 21.12988281 C113.30100082 22.86251122 113.30100082 22.86251122 113.31118774 24.63014221 C113.32130193 27.07022511 113.32600515 29.51033561 113.32568359 31.95043945 C113.33005824 35.67933753 113.36639719 39.40705329 113.40429688 43.13574219 C113.41016497 45.50878502 113.41413441 47.88183347 113.41601562 50.25488281 C113.43038666 51.36754013 113.44475769 52.48019745 113.45956421 53.62657166 C113.42347256 59.75308426 113.30079555 63.73978186 108.95507812 68.25878906 C104.4369604 70.70579896 100.09993763 70.5454785 95.09741211 70.5300293 C94.21553223 70.53525604 93.33365234 70.54048279 92.42504883 70.54586792 C90.51533724 70.55608883 88.60559794 70.56188499 86.69585991 70.56374931 C83.6739846 70.5674158 80.65243662 70.5841488 77.63063049 70.60450745 C69.04100621 70.65990338 60.45133455 70.69064953 51.86157227 70.71508789 C46.60374872 70.7309476 41.34615944 70.76114547 36.08845711 70.79985237 C34.084997 70.8115118 32.08149505 70.8174328 30.07800102 70.81753349 C27.27953424 70.81772519 24.48171586 70.83596435 21.68334961 70.8581543 C20.85466873 70.85357712 20.02598785 70.84899994 19.17219543 70.84428406 C15.84548356 70.88629608 13.39589618 71.01925972 10.44276428 72.62391663 C7.75195256 75.58094751 8.41766686 78.8622379 8.58789062 82.65722656 C8.81577274 85.35286295 8.81577274 85.35286295 10.33007812 87.82128906 C19.06556906 92.60501029 31.48956626 92.4780468 41.26757812 93.75878906 C101.21332018 101.66227675 101.21332018 101.66227675 114.95507812 119.25878906 C124.79014431 132.53501836 126.08975964 147.63625822 126.15820312 163.61035156 C126.1639032 164.66805756 126.16960327 165.72576355 126.17547607 166.81552124 C126.18486764 169.04253152 126.1914366 171.26955532 126.1953125 173.49658203 C126.20499158 176.85377025 126.23606121 180.21033839 126.26757812 183.56738281 C126.37432706 204.86251272 124.86489156 224.0766768 109.18164062 240.15332031 C108.446875 240.848125 107.71210937 241.54292969 106.95507812 242.25878906 C106.3646875 242.81953125 105.77429688 243.38027344 105.16601562 243.95800781 C90.95314861 255.88554599 70.58119198 259.5708531 52.68432617 259.53344727 C51.40488632 259.5385582 50.12544647 259.54366913 48.80723572 259.54893494 C45.33235875 259.56220206 41.85759132 259.56291818 38.38269401 259.56037164 C35.47237947 259.5592949 32.56208648 259.56420241 29.65177661 259.56897706 C22.78728421 259.58002665 15.92284657 259.58053344 9.05834961 259.57446289 C1.98893877 259.56840737 -5.08027383 259.58078436 -12.14965087 259.60203296 C-18.2382516 259.61965703 -24.32678922 259.62564961 -30.41541451 259.62239522 C-34.04396393 259.62058571 -37.67237143 259.62318649 -41.3008976 259.63710976 C-45.34111046 259.65203754 -49.38091883 259.6427111 -53.42114258 259.63110352 C-55.21430908 259.64256912 -55.21430908 259.64256912 -57.04370117 259.65426636 C-67.28186651 259.5891599 -67.28186651 259.5891599 -72.04492188 256.25878906 C-76.61590187 250.26922907 -76.21445428 243.63193187 -76.24804688 236.42675781 C-76.25374695 235.47617996 -76.25944702 234.52560211 -76.26531982 233.54621887 C-76.27474773 231.53822943 -76.28129501 229.53022466 -76.28515625 227.5222168 C-76.29485506 224.46733302 -76.32589685 221.41312433 -76.35742188 218.35839844 C-76.36395345 216.4020222 -76.36920331 214.44564118 -76.37304688 212.48925781 C-76.39156708 211.13105171 -76.39156708 211.13105171 -76.41046143 209.7454071 C-76.38882959 203.51649139 -75.75689347 197.78173295 -71.81573486 192.66203308 C-66.61936135 188.54427469 -60.43454232 188.99269476 -54.15576172 189.06347656 C-53.1762001 189.06639709 -52.19663849 189.06931763 -51.18739319 189.07232666 C-49.06757963 189.07991865 -46.94777864 189.09213066 -44.82801437 189.10845947 C-41.47431652 189.13402956 -38.12077719 189.14702816 -34.76699829 189.15673828 C-27.6512349 189.17957028 -20.53560244 189.21806986 -13.41992188 189.25878906 C-5.16701821 189.30596516 3.08581094 189.34674504 11.3388176 189.3706665 C14.64489456 189.38364481 17.95074308 189.40865708 21.25674438 189.43408203 C23.27939657 189.4413458 25.30205086 189.44804942 27.32470703 189.45410156 C28.24532425 189.4644342 29.16594147 189.47476685 30.11445618 189.4854126 C30.96111343 189.48555359 31.80777069 189.48569458 32.68008423 189.48583984 C33.41341288 189.49028107 34.14674152 189.49472229 34.90229225 189.4992981 C37.33910483 189.21379563 38.90257455 188.60018287 40.95507812 187.25878906 C42.51130439 182.59011027 42.32509586 178.14999081 41.39257812 173.38378906 C39.2947794 170.2826953 36.44354534 170.02264038 32.95507812 169.25878906 C29.76659266 168.69230214 26.56717059 168.24891748 23.35742188 167.82128906 C21.99043907 167.63288452 21.99043907 167.63288452 20.59584045 167.44067383 C17.69538089 167.04195415 14.79403318 166.65019194 11.89257812 166.25878906 C9.97128928 165.99624263 8.05006464 165.73322587 6.12890625 165.46972656 C2.41859181 164.96132862 -1.2918492 164.45387642 -5.00244141 163.94750977 C-5.86073547 163.83025543 -6.71902954 163.7130011 -7.60333252 163.5921936 C-9.14766907 163.38131096 -10.69205567 163.17079422 -12.23651123 162.96078491 C-31.45828845 160.33789011 -50.64353347 156.67038572 -64.04492188 141.25878906 C-76.10536512 124.35589511 -76.40800332 104.63231992 -76.3605957 84.61401367 C-76.35742938 81.82789127 -76.38102299 79.04282874 -76.40625 76.25683594 C-76.47910729 55.69539493 -74.11694434 36.34110045 -60.04492188 20.25878906 C-44.08043898 4.4886564 -21.71085375 -0.08532789 0 0 Z " fill="#E95B18" transform="translate(494.044921875,379.7412109375)"/>
</svg>
