<?xml version="1.0" encoding="UTF-8"?>
<svg version="1.1" xmlns="http://www.w3.org/2000/svg" width="1080" height="1080">
<path d="M0 0 C356.4 0 712.8 0 1080 0 C1080 356.4 1080 712.8 1080 1080 C723.6 1080 367.2 1080 0 1080 C0 723.6 0 367.2 0 0 Z " fill="#000000" transform="translate(0,0)"/>
<path d="M0 0 C20.11040513 7.00166413 40.14032716 14.20947549 60.125 21.5625 C61.74134842 22.15717072 61.74134842 22.15717072 63.39035034 22.76385498 C72.60168532 26.15435922 81.81255793 29.54518492 91 33 C83.54666814 54.50263741 75.75828144 75.87370694 67.85830688 97.21588135 C62.4077746 111.94721675 57.00908445 126.69502227 51.70703125 141.48046875 C51.44640585 142.20708206 51.18578045 142.93369537 50.91725731 143.68232727 C48.36336673 150.80418701 45.81443068 157.92779474 43.27461529 165.05468655 C42.33378237 167.69311521 41.39057895 170.3306929 40.44698143 172.96813393 C39.80793921 174.75730749 39.17236435 176.54771835 38.53694153 178.33818054 C38.14383286 179.43676895 37.75072418 180.53535736 37.34570312 181.66723633 C36.84447937 183.07480949 36.84447937 183.07480949 36.33312988 184.51081848 C34.34229193 189.72140979 32.14537129 194.8511089 30 200 C142.2 200 254.4 200 370 200 C371.485 195.05 371.485 195.05 373 190 C373.68674569 187.95810978 374.39052747 185.92179037 375.11865234 183.89428711 C375.51191711 182.79553757 375.90518188 181.69678802 376.31036377 180.56474304 C376.7313031 179.39740128 377.15224243 178.23005951 377.5859375 177.02734375 C378.03994906 175.76294614 378.4937812 174.4984841 378.94744873 173.23396301 C380.16614657 169.8397557 381.38852865 166.44688669 382.61191559 163.05436707 C383.37974188 160.92434559 384.1465332 158.79395421 384.9130249 156.66345215 C393.08222956 133.96005141 401.37025997 111.3022726 409.74291992 88.6730957 C413.57502222 78.31329646 417.39688889 67.95103821 421.12890625 57.5546875 C421.43983215 56.68896118 421.75075806 55.82323486 422.07110596 54.93127441 C423.47804323 51.00957524 424.87924444 47.08594678 426.27197266 43.15917969 C426.74766503 41.82745384 427.22340993 40.49574675 427.69921875 39.1640625 C428.09971436 38.03436035 428.50020996 36.9046582 428.9128418 35.74072266 C430 33 430 33 432 30 C440.01226286 32.27770078 447.82434514 35.01908807 455.65234375 37.859375 C456.96009063 38.33178164 458.26791813 38.80396514 459.57582092 39.27593994 C463.00357638 40.5136477 466.43012201 41.75467205 469.85644531 42.99633789 C472.60344286 43.99117382 475.35131601 44.9835771 478.09923363 45.97586823 C492.75133729 51.26702121 507.39279757 56.58587318 522 62 C521.41663745 68.38986783 519.37879017 73.92454038 517.1171875 79.90234375 C516.7146022 80.98475342 516.31201691 82.06716309 515.89723206 83.18237305 C515.02162325 85.53525293 514.14298919 87.88700871 513.26168823 90.23776245 C511.12596848 95.9359449 509.00853997 101.64089209 506.89291954 107.34655952 C506.39656974 108.68511946 505.89998653 110.02359287 505.40317726 111.36198235 C498.51516607 129.92344161 491.85690161 148.56755618 485.19559956 167.2113018 C484.24891693 169.85992647 483.30093586 172.50808545 482.35279655 175.15618896 C481.70816407 176.95864279 481.06577597 178.76189881 480.42347717 180.56518555 C480.03034836 181.66378906 479.63721954 182.76239258 479.23217773 183.89428711 C478.72762306 185.30852211 478.72762306 185.30852211 478.21287537 186.75132751 C476.55297571 191.19734934 474.76253645 195.59365887 473 200 C512.6 200 552.2 200 593 200 C593 230.03 593 260.06 593 291 C542.18 291 491.36 291 439 291 C438.67 292.98 438.34 294.96 438 297 C437.48798337 298.64790564 436.9281059 300.28163107 436.32373047 301.89794922 C435.9766806 302.83468475 435.62963074 303.77142029 435.27206421 304.73654175 C434.8909549 305.74902985 434.50984558 306.76151794 434.1171875 307.8046875 C433.71537262 308.88638214 433.31355774 309.96807678 432.89956665 311.08255005 C432.02399228 313.43897586 431.14616167 315.79456426 430.26635742 318.14941406 C427.86019596 324.59230296 425.47273812 331.0421061 423.0859375 337.4921875 C422.71200237 338.50201817 422.71200237 338.50201817 422.330513 339.53224945 C416.85839627 354.31525812 411.52881223 369.14821906 406.21910477 383.99017715 C398.30793766 406.10106435 390.28911042 428.16803041 382.140625 450.19287109 C375.33406614 468.59569459 368.63688496 487.03554234 362 505.5 C354.08469979 527.52088257 346.07106558 549.50279093 337.9296875 571.44140625 C329.11976348 595.23698177 320.59631407 619.1213498 312 643 C404.73 643 497.46 643 593 643 C593 673.03 593 703.06 593 734 C489.05 734 385.1 734 278 734 C276.515 739.445 276.515 739.445 275 745 C274.16606547 747.46257998 273.29606681 749.9133774 272.3828125 752.34765625 C272.13404861 753.01609558 271.88528473 753.68453491 271.62898254 754.37322998 C271.0859039 755.83171488 270.54080012 757.28944701 269.99386597 758.74649048 C268.42599312 762.92574088 266.87581476 767.11156013 265.32421875 771.296875 C264.98373001 772.21447098 264.64324127 773.13206696 264.29243469 774.07746887 C260.22013363 785.07192866 256.24685536 796.10212415 252.26660156 807.13015747 C244.79728269 827.82427996 237.2563678 848.48993423 229.625 869.125 C221.4863701 891.13351085 213.5086574 913.1961983 205.59402466 935.28594971 C197.8490579 956.90193643 190.00836128 978.48005226 182 1000 C165.81399722 994.75723872 149.84461896 988.98927096 133.89276123 983.07598877 C131.35439261 982.13589772 128.81486116 981.19897165 126.27528381 980.26215172 C123.18306924 979.12130652 120.0915202 977.97866279 117 976.8359375 C115.88616943 976.42435394 114.77233887 976.01277039 113.62475586 975.5887146 C106.06001414 972.78504037 98.52371498 969.91191859 91 967 C92.98498341 959.24960408 95.40037838 951.75313084 98.1484375 944.2421875 C98.55302689 943.12586945 98.95761627 942.00955139 99.37446594 940.85940552 C100.47410794 937.82875129 101.57773369 934.79958723 102.68337631 931.77111816 C103.61908269 929.20583608 104.55136539 926.63931507 105.4837141 924.07281113 C112.59529934 904.49885104 119.79211583 884.95642616 127.00970459 865.42132568 C133.08544245 848.97500436 139.07854798 832.50257892 145 816 C154.85848881 788.61530885 164.93818563 761.310639 175 734 C63.13 734.33 -48.74 734.66 -164 735 C-176.21729284 768.15759699 -176.21729284 768.15759699 -188.36560822 801.3403244 C-189.08531103 803.31250852 -189.80529233 805.2845908 -190.52532959 807.25665283 C-198.02550824 827.79979763 -205.47773303 848.35993788 -212.90872192 868.92822266 C-220.57327947 890.13590274 -228.34429259 911.30322066 -236.16259766 932.45458984 C-240.16450491 943.2835121 -244.16482536 954.11066738 -248 965 C-252.72105049 964.44009343 -256.90131785 963.50345522 -261.36816406 961.88623047 C-262.58763733 961.44842255 -263.8071106 961.01061462 -265.0635376 960.55953979 C-266.3809562 960.07890953 -267.69831713 959.59812116 -269.015625 959.1171875 C-270.39479352 958.61915057 -271.77417196 958.12169459 -273.15374756 957.62478638 C-276.78506489 956.31498403 -280.41337625 954.99704268 -284.0411377 953.6774292 C-287.66618935 952.36053077 -291.29416849 951.05175061 -294.921875 949.7421875 C-301.11778582 947.50477342 -307.30840301 945.25315379 -313.49689484 942.99531174 C-317.40529791 941.57209 -321.32255585 940.17707602 -325.24804688 938.80175781 C-326.14988708 938.48183868 -327.05172729 938.16191956 -327.980896 937.83230591 C-329.59206407 937.26146211 -331.20634118 936.69928054 -332.82427979 936.1479187 C-334.89746094 935.40673828 -334.89746094 935.40673828 -338 934 C-339.20464765 930.38605705 -338.70556723 929.47344245 -337.42724609 925.96435547 C-336.8668438 924.40529732 -336.8668438 924.40529732 -336.29512024 922.81474304 C-335.87546494 921.67704971 -335.45580963 920.53935638 -335.0234375 919.3671875 C-334.37504158 917.5765966 -334.37504158 917.5765966 -333.71354675 915.74983215 C-332.52696073 912.47410072 -331.3288044 909.20270831 -330.12852859 905.9319725 C-328.86024522 902.46982914 -327.60266677 899.00379905 -326.34350586 895.53833008 C-318.96676855 875.2564496 -311.49146099 855.01043647 -304.00317383 834.76953125 C-299.20190548 821.77786395 -294.45888093 808.76706258 -289.78125 795.73046875 C-289.52070265 795.00443892 -289.2601553 794.27840908 -288.99171257 793.53037834 C-286.43966255 786.41712027 -283.89224804 779.30222476 -281.35391426 772.1840601 C-280.41785456 769.56043508 -279.47969327 766.93756418 -278.54122925 764.31479836 C-277.90881949 762.54466551 -277.27952728 760.77341978 -276.65039062 759.00212097 C-273.63218713 750.56755211 -270.33367905 742.33419763 -267 734 C-293.4 734 -319.8 734 -347 734 C-347 703.97 -347 673.94 -347 643 C-309.38 643 -271.76 643 -233 643 C-232.34 640.03 -231.68 637.06 -231 634 C-230.43522804 632.17254947 -229.83286535 630.35589877 -229.1784668 628.55859375 C-228.82510757 627.57972198 -228.47174835 626.60085022 -228.10768127 625.59231567 C-227.72538864 624.5512265 -227.34309601 623.51013733 -226.94921875 622.4375 C-226.34055214 620.75972977 -226.34055214 620.75972977 -225.71958923 619.04806519 C-224.61267168 616.00092395 -223.50069766 612.95568917 -222.38629913 609.91127777 C-221.4412833 607.32657543 -220.50067242 604.74027936 -219.56007385 602.1539669 C-212.54660524 582.87054757 -205.44535141 563.61950473 -198.33050537 544.37329102 C-191.21550876 525.12059453 -184.2353142 505.82239021 -177.3125 486.5 C-170.2170694 466.69581706 -163.06706047 446.91429493 -155.78765869 427.17675781 C-148.90973698 408.52591775 -142.13114865 389.84007067 -135.39599609 371.13720703 C-125.73587066 344.37254657 -115.83776365 317.70250134 -106 291 C-185.53 291 -265.06 291 -347 291 C-347 260.97 -347 230.94 -347 200 C-256.25 200 -165.5 200 -72 200 C-71.67 198.02 -71.34 196.04 -71 194 C-70.56670914 192.56627883 -70.09035282 191.14470648 -69.56738281 189.74121094 C-69.27400528 188.94547668 -68.98062775 188.14974243 -68.67835999 187.32989502 C-68.35653244 186.47337341 -68.0347049 185.61685181 -67.703125 184.734375 C-67.36256577 183.81420593 -67.02200653 182.89403687 -66.67112732 181.94598389 C-65.92789763 179.93914411 -65.18231101 177.93317602 -64.43466187 175.92797852 C-62.37356241 170.39886511 -60.33050216 164.863081 -58.28515625 159.328125 C-57.63731926 157.57701416 -57.63731926 157.57701416 -56.97639465 155.79052734 C-52.58948054 143.91959572 -48.28718279 132.01853563 -43.99176025 120.11425781 C-34.25631962 93.13621239 -24.37400655 66.21495967 -14.43661499 39.31080627 C-11.00708734 30.02451639 -7.59218206 20.73292498 -4.1875 11.4375 C-3.74325684 10.22481445 -3.29901367 9.01212891 -2.84130859 7.76269531 C-1.89379845 5.17527893 -0.94661849 2.5877427 0 0 Z " fill="#F59400" transform="translate(417,40)"/>
<path d="M0 0 C1.54413272 0.00056958 1.54413272 0.00056958 3.11946005 0.00115067 C4.3023222 -0.00084038 5.48518434 -0.00283143 6.7038908 -0.00488281 C8.02000943 -0.00196997 9.33612806 0.00094287 10.69212908 0.00394398 C12.09129965 0.0035084 13.49047015 0.00263374 14.88964021 0.00135481 C18.7525247 -0.00089277 22.61538173 0.00313471 26.47826272 0.00813287 C30.63711155 0.01243343 34.79595871 0.01099123 38.95480913 0.0102306 C46.16630034 0.00970511 53.37778254 0.01285449 60.58927149 0.01846844 C71.01599747 0.02658011 81.44271908 0.02919832 91.86944788 0.03045643 C108.78429733 0.03264748 125.69914198 0.03930898 142.61398882 0.04875904 C159.04953545 0.0579318 175.48508077 0.0650133 191.92062944 0.06926686 C193.43912261 0.06966094 193.43912261 0.06966094 194.9882924 0.07006299 C200.06662192 0.07136798 205.14495144 0.0726317 210.22328097 0.07387489 C252.38289852 0.08424914 294.54251078 0.10186888 336.70212358 0.1241985 C336.09587083 3.93943333 335.3796731 7.40154669 334.02585405 11.02214772 C333.67880419 11.95888325 333.33175432 12.89561878 332.97418779 13.86074024 C332.59307848 14.87322834 332.21196916 15.88571644 331.81931108 16.928886 C331.4174962 18.01058064 331.01568132 19.09227528 330.60169023 20.20674855 C329.72611586 22.56317436 328.84828525 24.91876276 327.968481 27.27361256 C325.56231955 33.71650146 323.1748617 40.16630459 320.78806108 46.616386 C320.538771 47.28960644 320.28948091 47.96282688 320.03263658 48.65644795 C314.56059415 63.43925591 309.23103112 78.27199977 303.92143053 93.11376911 C296.45225454 113.98976782 288.89826644 134.8304789 281.20212358 155.6241985 C273.69144534 175.9172733 266.312375 196.25388484 259.01462358 216.6241985 C252.25030479 235.50412876 245.44681049 254.36753588 238.51462358 273.1866985 C228.83760756 299.4724938 219.27451499 325.80012213 209.70212358 352.1241985 C97.50212358 352.1241985 -14.69787642 352.1241985 -130.29787642 352.1241985 C-126.92246084 340.87281325 -126.92246084 340.87281325 -125.14748579 335.9391399 C-124.74780592 334.82434757 -124.34812605 333.70955525 -123.93633467 332.56098133 C-123.50908095 331.37785862 -123.08182722 330.19473591 -122.64162642 328.975761 C-122.18243157 327.69852484 -121.72344246 326.42121471 -121.26464278 325.14383656 C-120.03498573 321.72269849 -118.80183595 318.30282974 -117.56776625 314.88328129 C-116.79178531 312.73231435 -116.01675134 310.58100854 -115.24202925 308.4295879 C-103.70784835 276.39991045 -92.06065033 244.41175781 -80.25881392 212.47966725 C-78.5215146 207.77796254 -76.78453088 203.07614143 -75.04787642 198.3741985 C-74.39743361 196.61343479 -74.39743361 196.61343479 -73.73385054 194.81710011 C-66.39958843 174.95080146 -59.21181367 155.03471586 -52.07223707 135.09789616 C-44.11338665 112.87432789 -36.02468332 90.70308485 -27.83400923 68.56365162 C-23.59817036 57.1093807 -19.38687967 45.64733148 -15.24318892 34.15935475 C-14.64179594 32.49216641 -14.64179594 32.49216641 -14.02825361 30.7912975 C-12.13412362 25.53612688 -10.24480291 20.2792712 -8.3608647 15.02043873 C-7.69925985 13.18001948 -7.0376397 11.33960573 -6.37600142 9.4991985 C-6.07606276 8.657486 -5.7761241 7.81577351 -5.46709639 6.94855458 C-3.02425857 0.16345891 -3.02425857 0.16345891 0 0 Z " fill="#010000" transform="translate(416.29787641763687,330.8758015036583)"/>
<path d="M0 0 C2.62648051 -0.00015531 5.25296124 -0.00164958 7.87944031 -0.00440979 C13.34314004 -0.00708789 18.80661698 0.00617095 24.27026367 0.02954102 C30.57188779 0.05630996 36.87314419 0.05783421 43.17480594 0.04615265 C49.27830051 0.03536316 55.3816418 0.04166527 61.4851284 0.05570793 C64.06750287 0.06021699 66.64988814 0.06056401 69.23226357 0.05664253 C72.8286529 0.05373332 76.4244389 0.07021811 80.02075195 0.09204102 C81.08206833 0.08753937 82.1433847 0.08303772 83.23686218 0.07839966 C88.64762636 0.13296949 92.71230136 0.32634438 97.32421875 3.49609375 C99.54781663 6.83149057 99.58010543 7.91394391 99.59887695 11.80615234 C99.60840897 12.89092865 99.61794098 13.97570496 99.62776184 15.09335327 C99.62639473 16.85118637 99.62639473 16.85118637 99.625 18.64453125 C99.62928513 19.84921051 99.63357025 21.05388977 99.63798523 22.29507446 C99.64373286 24.84547293 99.64422563 27.3958878 99.63989258 29.94628906 C99.63673695 33.8485923 99.66017266 37.75013454 99.68554688 41.65234375 C99.68782024 44.12890529 99.68852319 46.60546888 99.6875 49.08203125 C99.69670975 50.24987152 99.70591949 51.41771179 99.71540833 52.62094116 C99.70917953 53.71202179 99.70295074 54.80310242 99.6965332 55.92724609 C99.69716263 56.88416351 99.69779205 57.84108093 99.69844055 58.82699585 C99.23986762 62.09771938 98.36357519 63.9008401 96.32421875 66.49609375 C92.01338234 69.11410914 87.37236547 68.77590606 82.48242188 68.75146484 C81.60214828 68.7550853 80.72187469 68.75870575 79.81492615 68.76243591 C77.90848322 68.76931583 76.00202066 68.77183799 74.0955658 68.77048874 C71.07761334 68.76952233 68.06001588 68.78247853 65.04211426 68.79946899 C56.46348798 68.84571313 47.88489901 68.87035595 39.30615234 68.87695312 C34.05476041 68.88196502 28.80374084 68.90619552 23.55247498 68.94227982 C21.55262995 68.95208228 19.55273374 68.95440734 17.5528717 68.94910812 C14.75684726 68.94204509 11.96193495 68.95930292 9.16601562 68.98193359 C8.34093002 68.97376114 7.51584442 68.96558868 6.66575623 68.95716858 C2.71045373 69.01413351 0.75533442 69.22859737 -2.68688965 71.3644104 C-5.1651562 74.02060319 -5.35063191 75.33936135 -5.30078125 78.93359375 C-5.1059745 82.77846382 -4.82537537 84.26702776 -2.67578125 87.55859375 C3.1627604 91.32931857 10.12217876 91.85202725 16.91015625 92.53125 C17.69315094 92.61483261 18.47614563 92.69841522 19.28286743 92.78453064 C21.75445632 93.04789414 24.22672169 93.30390869 26.69921875 93.55859375 C29.19305706 93.81749715 31.68667287 94.07807721 34.17984009 94.34336853 C35.72417118 94.50753838 37.26890632 94.66796021 38.8140564 94.82423401 C44.09960542 95.38378709 44.09960542 95.38378709 46.32421875 96.49609375 C48.46709509 96.77028655 50.61377957 97.01488394 52.76171875 97.24609375 C72.79424271 99.73847238 90.78140674 105.10467004 103.84375 121.390625 C107.8478057 127.13662639 109.51822724 133.80330168 111.32421875 140.49609375 C111.50200363 141.09705368 111.67978851 141.69801361 111.86296082 142.31718445 C112.43469326 145.0179578 112.4748167 147.55036841 112.5012207 150.31176758 C112.52047356 152.07059013 112.52047356 152.07059013 112.54011536 153.86494446 C112.54750229 155.13154404 112.55488922 156.39814362 112.5625 157.703125 C112.57057175 159.01584885 112.57864349 160.32857269 112.58695984 161.68107605 C112.6019734 164.46601225 112.61181333 167.25092315 112.61938477 170.03588867 C112.63035564 173.56126191 112.66464891 177.08598751 112.70455647 180.61113453 C112.73104026 183.3559617 112.73910494 186.10064317 112.74266624 188.84558678 C112.74976067 190.76342743 112.77607278 192.68116721 112.80305481 194.59883118 C112.7615648 211.71949578 107.57733525 227.21586859 95.32421875 239.49609375 C94.8034375 240.02847656 94.28265625 240.56085938 93.74609375 241.109375 C79.6949715 254.30788061 59.23829151 257.80040459 40.76220703 257.78662109 C39.45190018 257.79333832 38.14159332 257.80005554 36.7915802 257.80697632 C33.2320729 257.82448072 29.67266199 257.82932455 26.11311579 257.83060789 C23.88563079 257.83203696 21.65816976 257.83632035 19.43069077 257.84160233 C11.65071829 257.86003872 3.87081392 257.86827947 -3.90917969 257.86669922 C-11.15020405 257.86549392 -18.39093226 257.88668821 -25.63188159 257.91818655 C-31.86568977 257.94433373 -38.09940092 257.95506744 -44.33326352 257.9537884 C-48.04958198 257.95327906 -51.76563569 257.95894896 -55.48189926 257.9801445 C-59.61818591 258.00309967 -63.75380408 257.99401581 -67.89013672 257.98193359 C-69.11722855 257.99317261 -70.34432037 258.00441162 -71.6085968 258.01599121 C-79.89746027 257.95428577 -79.89746027 257.95428577 -83.91238403 255.59072876 C-86.65097042 252.33772435 -86.80976481 250.48396247 -86.8527832 246.29956055 C-86.86561844 245.21470871 -86.87845367 244.12985687 -86.89167786 243.01213074 C-86.89906479 241.83508072 -86.90645172 240.6580307 -86.9140625 239.4453125 C-86.92213425 238.23921829 -86.93020599 237.03312408 -86.93852234 235.79048157 C-86.95237225 233.23411501 -86.96309032 230.67772989 -86.97094727 228.12133789 C-86.9881646 224.21009321 -87.03204501 220.29969253 -87.07617188 216.38867188 C-87.08629805 213.90755831 -87.09481439 211.42643755 -87.1015625 208.9453125 C-87.12782463 207.18884651 -87.12782463 207.18884651 -87.15461731 205.39689636 C-87.132888 197.26904958 -87.132888 197.26904958 -84.77416992 193.28051758 C-81.83208917 190.77863646 -80.25643926 190.37032578 -76.48271179 190.35133362 C-75.60370209 190.34443512 -74.72469238 190.33753662 -73.81904602 190.33042908 C-72.85226425 190.3278157 -71.88548248 190.32520233 -70.8894043 190.32250977 C-69.36482605 190.31247925 -69.36482605 190.31247925 -67.80944824 190.30224609 C-65.59683632 190.28817227 -63.38420968 190.27628569 -61.17157555 190.26629829 C-57.67087349 190.24992222 -54.17028031 190.22668527 -50.66963196 190.20140076 C-40.7144613 190.13053437 -30.75924581 190.07050507 -20.80395508 190.01928711 C-14.71969553 189.98750282 -8.63556018 189.9462264 -2.55140114 189.89909172 C-0.23058112 189.88306589 2.09026754 189.87074702 4.41112709 189.86218452 C7.65743241 189.85003653 10.90344566 189.82588777 14.1496582 189.79907227 C15.11036728 189.79848312 16.07107635 189.79789398 17.06089783 189.79728699 C23.43825916 189.7712675 23.43825916 189.7712675 29.32421875 187.49609375 C31.12842836 182.7773917 30.46031965 177.08201094 30.19921875 172.12109375 C29.40772657 170.24583845 29.40772657 170.24583845 27 169.5078125 C21.93218663 168.11295207 16.83687542 167.41380747 11.63671875 166.68359375 C10.47640137 166.51545166 9.31608398 166.34730957 8.12060547 166.17407227 C1.93118514 165.28053205 -4.26171901 164.41305809 -10.45594788 163.55363464 C-13.55893794 163.12238722 -16.66137754 162.68724107 -19.76382446 162.25210571 C-21.99385755 161.9415217 -24.22476249 161.63790995 -26.45581055 161.3347168 C-45.52134054 158.70245432 -63.51010061 154.68726371 -76.67578125 139.49609375 C-84.71318447 128.07635598 -87.30093666 115.32228684 -87.13671875 101.59375 C-87.13580231 100.31358505 -87.13488586 99.0334201 -87.13394165 97.71446228 C-87.13084403 95.025967 -87.11452196 92.33801644 -87.08740234 89.6496582 C-87.05346194 86.24677716 -87.04577501 82.84449119 -87.04729271 79.44146061 C-87.04661011 76.1379811 -87.02888364 72.83468646 -87.01171875 69.53125 C-87.0094931 68.33186295 -87.00726746 67.13247589 -87.00497437 65.89674377 C-86.79790402 47.1004934 -83.86532563 31.73943402 -70.23828125 18.046875 C-50.19521465 0.47936573 -25.3617256 -0.12323141 0 0 Z " fill="#F59400" transform="translate(506.67578125,380.50390625)"/>
</svg>
